<?xml version="1.0" encoding="UTF-8" standalone="no"?>
<svg
   height="480"
   width="640"
   version="1.1"
   id="svg21"
   sodipodi:docname="za-his.svg"
   inkscape:version="1.3 (0e150ed6c4, 2023-07-21)"
   xmlns:inkscape="http://www.inkscape.org/namespaces/inkscape"
   xmlns:sodipodi="http://sodipodi.sourceforge.net/DTD/sodipodi-0.dtd"
   xmlns="http://www.w3.org/2000/svg"
   xmlns:svg="http://www.w3.org/2000/svg">
  <sodipodi:namedview
     id="namedview21"
     pagecolor="#ffffff"
     bordercolor="#000000"
     borderopacity="0.25"
     inkscape:showpageshadow="2"
     inkscape:pageopacity="0.0"
     inkscape:pagecheckerboard="0"
     inkscape:deskcolor="#d1d1d1"
     inkscape:zoom="1.2005102"
     inkscape:cx="443.97791"
     inkscape:cy="307.78581"
     inkscape:window-width="2240"
     inkscape:window-height="1294"
     inkscape:window-x="2869"
     inkscape:window-y="-11"
     inkscape:window-maximized="1"
     inkscape:current-layer="svg21" />
  <defs
     id="defs2">
    <clipPath
       id="a">
      <path
         d="M0 0v30h45V0z"
         id="path1" />
    </clipPath>
    <clipPath
       id="b">
      <path
         d="M22.5 15H0v15zm0 0v15H45zm0 0H45V0zm0 0V0H0z"
         id="path2" />
    </clipPath>
  </defs>
  <g
     id="g21"
     transform="matrix(0.8,0,0,0.8,-40,0)">
    <path
       d="M 0,0 H 900 V 600 H 0 Z"
       fill="#003884"
       id="path3" />
    <path
       d="M 0,0 H 900 V 400 H 0 Z"
       fill="#ffffff"
       id="path4" />
    <path
       d="M 0,0 H 900 V 200 H 0 Z"
       fill="#ff8400"
       id="path5" />
    <path
       stroke="#000000"
       stroke-width="2"
       d="m 315.666,266.667 v 66.666 h 100 v -66.666 z"
       id="path6" />
    <path
       stroke="#000000"
       stroke-width="2"
       d="m 416.666,250 h 66.667 v 100 h -66.667 z"
       id="path7" />
    <path
       stroke="#000000"
       stroke-width="2"
       d="m 484.333,266.667 h 100 v 66.666 h -100 z"
       id="path8" />
    <path
       fill="#003884"
       d="m 315.666,266.667 v 66.666 h 100 v -66.666 z"
       id="path9" />
    <path
       transform="matrix(2.22222,0,0,2.22222,315.666,266.667)"
       stroke-width="6"
       stroke="#ffffff"
       clip-path="url(#a)"
       d="M 0,0 45,30 M 45,0 0,30"
       id="path10" />
    <path
       transform="matrix(2.22222,0,0,2.22222,315.666,266.667)"
       stroke-width="4"
       stroke="#ce1126"
       clip-path="url(#b)"
       d="M 0,0 45,30 M 45,0 0,30"
       id="path11" />
    <path
       stroke-width="22.222"
       stroke="#ffffff"
       d="m 365.666,266.667 v 66.666 m -50,-33.333 h 100"
       id="path12" />
    <path
       stroke-width="13.333"
       stroke="#ce1126"
       d="m 365.666,266.667 v 66.666 m -50,-33.333 h 100"
       id="path13" />
    <path
       fill="#ffffff"
       d="m 416.666,250 h 66.667 v 100 h -66.667 z"
       id="path14" />
    <path
       stroke-width="9.524"
       stroke="#ce1126"
       d="m 421.429,250 v 42.857"
       id="path15" />
    <path
       stroke-width="9.524"
       stroke="#003884"
       d="m 440.476,250 v 42.857"
       id="path16" />
    <path
       stroke-width="9.524"
       stroke="#ff8400"
       d="M 430.952,292.857 V 350 M 450,250 v 100 m 19.048,-100 v 100"
       id="path17" />
    <path
       fill="#003884"
       d="m 484.333,266.667 h 100 v 66.666 h -100 z"
       id="path18" />
    <path
       fill="#ffffff"
       d="m 484.333,266.667 h 100 v 44.444 h -100 z"
       id="path19" />
    <path
       fill="#ce1126"
       d="m 484.333,266.667 h 100 v 22.222 h -100 z"
       id="path20" />
    <path
       fill="#007a4d"
       d="M 484.333,266.667 H 511 v 66.666 h -26.667 z"
       id="path21" />
  </g>
</svg>
